<?xml version="1.0" standalone="no"?>
<!DOCTYPE svg PUBLIC "-//W3C//DTD SVG 20010904//EN"
 "http://www.w3.org/TR/2001/REC-SVG-20010904/DTD/svg10.dtd">
<svg version="1.0" xmlns="http://www.w3.org/2000/svg"
 width="1024.000000pt" height="1024.000000pt" viewBox="0 0 1024.000000 1024.000000"
 preserveAspectRatio="xMidYMid meet">
<metadata>
Created by potrace 1.14, written by Peter Selinger 2001-2017
</metadata>
<g transform="translate(0.000000,1024.000000) scale(0.100000,-0.100000)"
fill="#000000" stroke="none">
<path d="M4916 9487 c-15 -72 -30 -141 -32 -152 -3 -11 -7 -31 -10 -45 -12
-60 -116 -463 -140 -540 -99 -326 -230 -692 -309 -865 -7 -16 -34 -77 -60
-135 -26 -58 -56 -123 -67 -145 -11 -22 -26 -51 -33 -65 -24 -49 -128 -246
-163 -310 -167 -307 -521 -837 -812 -1215 -26 -33 -100 -130 -165 -215 -66
-85 -160 -207 -210 -270 -95 -119 -205 -272 -205 -284 0 -4 -11 -22 -24 -39
-85 -113 -245 -511 -282 -700 -2 -10 -5 -26 -8 -35 -6 -18 -8 -33 -30 -157
-24 -135 -31 -232 -31 -435 0 -175 11 -365 21 -381 2 -3 6 -24 9 -45 29 -221
124 -516 246 -758 68 -136 201 -348 270 -432 19 -22 50 -60 69 -84 58 -74 260
-271 350 -343 89 -71 283 -207 296 -207 4 0 15 -6 23 -14 33 -28 239 -128 406
-197 119 -49 394 -120 525 -135 30 -3 57 -8 60 -9 14 -8 208 -19 330 -19 131
0 289 9 340 19 14 3 45 7 69 10 74 9 238 45 324 71 45 14 89 27 97 29 22 6
151 54 185 70 396 179 644 352 920 646 289 306 532 757 620 1149 18 77 44 213
49 245 3 22 9 65 13 95 10 72 10 478 0 555 -19 154 -28 203 -59 330 -53 218
-125 407 -233 611 -56 105 -188 314 -224 355 -7 8 -43 57 -82 109 -38 52 -75
102 -82 110 -11 14 -201 270 -233 315 -8 11 -45 61 -82 111 -37 51 -73 100
-80 110 -7 11 -48 69 -90 129 -81 115 -226 329 -304 450 -99 154 -118 186
-118 195 0 6 -4 10 -8 10 -4 0 -19 22 -33 50 -13 27 -27 50 -31 50 -5 0 -8 4
-8 9 0 8 -71 139 -126 231 -26 44 -218 432 -257 518 -20 45 -60 140 -88 210
-28 70 -57 141 -64 157 -86 200 -312 944 -348 1145 -8 42 -59 265 -61 267 -1
2 -15 -57 -30 -130z"/>
</g>
</svg>
