<?xml version="1.0" ?><svg style="enable-background:new 0 0 48 48;" version="1.1" viewBox="0 0 48 48" xml:space="preserve" xmlns="http://www.w3.org/2000/svg" xmlns:xlink="http://www.w3.org/1999/xlink"><g id="Icons"><g><path d="M31.65875,25.16625c0.02,0.24,0.03,0.48,0.03,0.73c0,5.91-4.79,10.7-10.7,10.7    s-10.69-4.79-10.69-10.7c0-5.9,4.78-10.69,10.69-10.69c2.07,0,4,0.59,5.64,1.61" style="fill:#5F83CF;"/><g><path d="M28.95865,24.78585c0.08,1.24,0.1301,3.1604-0.0199,3.2404c-0.26,0.12-1.69-0.84-1.69-0.84     l0.2124-2.8938" style="fill:#779DE0;"/><path d="M13.20275,20.75545c0,0,3.0817-4.7559,9.2917-4.0459c0.34,0.03,0.65,0.03,0.83,0.34     c0.03,0.06,0.65,0.6,0.65,0.61h-1.73l-0.36,0.32l1.58,0.94c-0.35,0.09-1.25,0.38-1.25,0.38l-0.9159,1.0921l-0.0126,1.1872     l1.3485,0.6007c0.06,0,0.25-0.62,0.25-0.62l2.1132-1.2586c0.0374,0,0.1985,1.7758,0.1985,1.7758     c0.08,0.01,0.5783-0.2272,0.9183-0.4172c-0.1133,0.4219-0.91,2.05-0.91,2.05l-0.97,0.98l0.28,0.48l-3.9738,2.0679     c-0.1676,0.0701-0.317,0.1907-0.3662,0.3721c-0.16,0.6,0.3,1.5,0.36,1.69c0.06,0.18-0.48,0.73-0.53,0.76     c-0.05,0.03-1.06-0.53-1.23-0.61c0,0-2.5951-2.4009-2.7501-4.9714l0.8494-2.955l-1.8493-0.5736     C15.02445,20.94955,13.53235,20.80355,13.20275,20.75545" style="fill:#779DE0;"/><path d="M23.79235,29.17335c0,0,0.9579,0.0991,1.1396,0.0991s0.7267-0.7102,0.7267-0.7102     s-0.2477-0.4624-0.3964-0.479c-0.1486-0.0165-1.7176,0.2148-1.7176,0.2148L23.79235,29.17335z" style="fill:#779DE0;"/><path d="M22.14225,29.17195c0,0,1.2291,1.2227,1.3629,1.2955c0.1338,0.0728-0.1294,0.7519-0.1294,0.7519     l-0.8424,0.9892l-0.9181-2.0032C21.61525,30.20535,22.12765,29.30185,22.14225,29.17195z" style="fill:#779DE0;"/><path d="M25.49825,31.61115v-0.7223l2.9994-0.355c0,0-1.1508,3.4156-3.6605,3.9542l-1.5425-0.8079     L25.49825,31.61115z" style="fill:#779DE0;"/></g><path d="M31.68445,25.89225c0,0.28-0.01,0.55-0.03,0.82h-3.07c-0.49,0-0.93-0.18-1.27-0.47    c-0.42-0.36-0.68-0.89-0.68-1.48v-1.55c0,0.64,0.7876,0.4092,1.2676,0.7692c0.32,0.24,0.1698,0.311,0.6097,0.311l3.1427,0.8698    C31.67445,25.40225,31.68445,25.64225,31.68445,25.89225z" style="opacity:0.1;"/><g><path d="M36.09125,25.13375c-0.11,0.02-0.22,0.03-0.34,0.03h-0.09h-2.99h-4.09     c-1.08,0-1.95-0.88-1.95-1.95v-9.86c0-1.08,0.87-1.95,1.95-1.95h7.17c1.07,0,1.95,0.87,1.95,1.95v3.46v6.4     C37.70125,24.16375,37.00125,24.97375,36.09125,25.13375" style="fill:#F43734;"/><path d="M32.67505,14.85875c-0.15,0.3-0.4,0.6-0.75,0.91c-0.35,0.32-0.76,0.58-1.23,0.8v0.81     c0.26-0.09,0.56-0.24,0.88-0.43c0.3299-0.19,0.6-0.38,0.8-0.58v5.34h0.8399v-6.85H32.67505z" style="fill:#FFFFFF;"/></g></g></g></svg>